<svg xmlns="http://www.w3.org/2000/svg" xmlns:xlink="http://www.w3.org/1999/xlink" width="500" zoomAndPan="magnify" viewBox="0 0 375 374.999991" height="500" preserveAspectRatio="xMidYMid meet" version="1.0"><defs><clipPath id="0d6e6aa611"><path d="M 303.878906 0 L 375 0 L 375 375 L 303.878906 375 Z M 303.878906 0 " clip-rule="nonzero"/></clipPath><clipPath id="beb212ffbb"><path d="M 0 267.078125 L 375 267.078125 L 375 375 L 0 375 Z M 0 267.078125 " clip-rule="nonzero"/></clipPath><clipPath id="e0b92eff9f"><path d="M 0 0 L 375 0 L 375 108 L 0 108 Z M 0 0 " clip-rule="nonzero"/></clipPath><clipPath id="6652d1691c"><path d="M 0 0 L 71.25 0 L 71.25 375 L 0 375 Z M 0 0 " clip-rule="nonzero"/></clipPath><clipPath id="39515fe3e4"><path d="M 104 80 L 271.246094 80 L 271.246094 322.542969 L 104 322.542969 Z M 104 80 " clip-rule="nonzero"/></clipPath></defs><rect x="-37.5" width="450" fill="#ffffff" y="-37.499999" height="449.999989" fill-opacity="1"/><rect x="-37.5" width="450" fill="#0d1216" y="-37.499999" height="449.999989" fill-opacity="1"/><g clip-path="url(#0d6e6aa611)"><path fill="#ffffff" d="M 187.5 375 C 84.113281 375 0 290.886719 0 187.5 C 0 84.113281 84.113281 0 187.5 0 C 290.886719 0 375 84.113281 375 187.5 C 375 290.886719 290.886719 375 187.5 375 Z M 187.5 17.859375 C 93.957031 17.859375 17.859375 93.957031 17.859375 187.5 C 17.859375 281.039062 93.957031 357.140625 187.5 357.140625 C 281.039062 357.140625 357.140625 281.039062 357.140625 187.5 C 357.140625 93.957031 281.039062 17.859375 187.5 17.859375 Z M 187.5 17.859375 " fill-opacity="1" fill-rule="nonzero"/></g><g clip-path="url(#beb212ffbb)"><path fill="#ffffff" d="M 187.5 375 C 84.113281 375 0 290.886719 0 187.5 C 0 84.113281 84.113281 0 187.5 0 C 290.886719 0 375 84.113281 375 187.5 C 375 290.886719 290.886719 375 187.5 375 Z M 187.5 17.859375 C 93.957031 17.859375 17.859375 93.957031 17.859375 187.5 C 17.859375 281.039062 93.957031 357.140625 187.5 357.140625 C 281.039062 357.140625 357.140625 281.039062 357.140625 187.5 C 357.140625 93.957031 281.039062 17.859375 187.5 17.859375 Z M 187.5 17.859375 " fill-opacity="1" fill-rule="nonzero"/></g><g clip-path="url(#e0b92eff9f)"><path fill="#ffffff" d="M 187.5 375 C 84.113281 375 0 290.886719 0 187.5 C 0 84.113281 84.113281 0 187.5 0 C 290.886719 0 375 84.113281 375 187.5 C 375 290.886719 290.886719 375 187.5 375 Z M 187.5 17.859375 C 93.957031 17.859375 17.859375 93.957031 17.859375 187.5 C 17.859375 281.039062 93.957031 357.140625 187.5 357.140625 C 281.039062 357.140625 357.140625 281.039062 357.140625 187.5 C 357.140625 93.957031 281.039062 17.859375 187.5 17.859375 Z M 187.5 17.859375 " fill-opacity="1" fill-rule="nonzero"/></g><g clip-path="url(#6652d1691c)"><path fill="#ffffff" d="M 187.5 375 C 84.113281 375 0 290.886719 0 187.5 C 0 84.113281 84.113281 0 187.5 0 C 290.886719 0 375 84.113281 375 187.5 C 375 290.886719 290.886719 375 187.5 375 Z M 187.5 17.859375 C 93.957031 17.859375 17.859375 93.957031 17.859375 187.5 C 17.859375 281.039062 93.957031 357.140625 187.5 357.140625 C 281.039062 357.140625 357.140625 281.039062 357.140625 187.5 C 357.140625 93.957031 281.039062 17.859375 187.5 17.859375 Z M 187.5 17.859375 " fill-opacity="1" fill-rule="nonzero"/></g><g clip-path="url(#39515fe3e4)"><path fill="#ffffff" d="M 104.066406 164.972656 C 104.066406 212.210938 187.621094 322.496094 187.621094 322.496094 C 187.621094 322.496094 271.171875 212.210938 271.171875 164.972656 C 269.28125 52.542969 105.964844 52.519531 104.066406 164.972656 Z M 187.621094 207.246094 C 162.328125 207.246094 141.820312 186.761719 141.820312 161.496094 C 141.820312 136.234375 162.328125 115.75 187.621094 115.75 C 212.910156 115.75 233.417969 136.234375 233.417969 161.496094 C 233.417969 186.761719 212.910156 207.246094 187.621094 207.246094 Z M 187.621094 207.246094 " fill-opacity="1" fill-rule="nonzero"/></g></svg>