<svg xmlns="http://www.w3.org/2000/svg" xmlns:xlink="http://www.w3.org/1999/xlink" width="500" zoomAndPan="magnify" viewBox="0 0 375 374.999991" height="500" preserveAspectRatio="xMidYMid meet" version="1.0"><defs><clipPath id="6daaf29c31"><path d="M 303.878906 0 L 375 0 L 375 375 L 303.878906 375 Z M 303.878906 0 " clip-rule="nonzero"/></clipPath><clipPath id="e1afe34961"><path d="M 0 267.078125 L 375 267.078125 L 375 375 L 0 375 Z M 0 267.078125 " clip-rule="nonzero"/></clipPath><clipPath id="10d9addefc"><path d="M 0 0 L 375 0 L 375 108 L 0 108 Z M 0 0 " clip-rule="nonzero"/></clipPath><clipPath id="8b5817bb7f"><path d="M 0 0 L 71.25 0 L 71.25 375 L 0 375 Z M 0 0 " clip-rule="nonzero"/></clipPath><clipPath id="c3a4a10ee5"><path d="M 104 80 L 271.246094 80 L 271.246094 322.542969 L 104 322.542969 Z M 104 80 " clip-rule="nonzero"/></clipPath></defs><g clip-path="url(#6daaf29c31)"><path fill="#ffffff" d="M 187.5 375 C 84.113281 375 0 290.886719 0 187.5 C 0 84.113281 84.113281 0 187.5 0 C 290.886719 0 375 84.113281 375 187.5 C 375 290.886719 290.886719 375 187.5 375 Z M 187.5 17.859375 C 93.957031 17.859375 17.859375 93.957031 17.859375 187.5 C 17.859375 281.039062 93.957031 357.140625 187.5 357.140625 C 281.039062 357.140625 357.140625 281.039062 357.140625 187.5 C 357.140625 93.957031 281.039062 17.859375 187.5 17.859375 Z M 187.5 17.859375 " fill-opacity="1" fill-rule="nonzero"/></g><g clip-path="url(#e1afe34961)"><path fill="#ffffff" d="M 187.5 375 C 84.113281 375 0 290.886719 0 187.5 C 0 84.113281 84.113281 0 187.5 0 C 290.886719 0 375 84.113281 375 187.5 C 375 290.886719 290.886719 375 187.5 375 Z M 187.5 17.859375 C 93.957031 17.859375 17.859375 93.957031 17.859375 187.5 C 17.859375 281.039062 93.957031 357.140625 187.5 357.140625 C 281.039062 357.140625 357.140625 281.039062 357.140625 187.5 C 357.140625 93.957031 281.039062 17.859375 187.5 17.859375 Z M 187.5 17.859375 " fill-opacity="1" fill-rule="nonzero"/></g><g clip-path="url(#10d9addefc)"><path fill="#ffffff" d="M 187.5 375 C 84.113281 375 0 290.886719 0 187.5 C 0 84.113281 84.113281 0 187.5 0 C 290.886719 0 375 84.113281 375 187.5 C 375 290.886719 290.886719 375 187.5 375 Z M 187.5 17.859375 C 93.957031 17.859375 17.859375 93.957031 17.859375 187.5 C 17.859375 281.039062 93.957031 357.140625 187.5 357.140625 C 281.039062 357.140625 357.140625 281.039062 357.140625 187.5 C 357.140625 93.957031 281.039062 17.859375 187.5 17.859375 Z M 187.5 17.859375 " fill-opacity="1" fill-rule="nonzero"/></g><g clip-path="url(#8b5817bb7f)"><path fill="#ffffff" d="M 187.5 375 C 84.113281 375 0 290.886719 0 187.5 C 0 84.113281 84.113281 0 187.5 0 C 290.886719 0 375 84.113281 375 187.5 C 375 290.886719 290.886719 375 187.5 375 Z M 187.5 17.859375 C 93.957031 17.859375 17.859375 93.957031 17.859375 187.5 C 17.859375 281.039062 93.957031 357.140625 187.5 357.140625 C 281.039062 357.140625 357.140625 281.039062 357.140625 187.5 C 357.140625 93.957031 281.039062 17.859375 187.5 17.859375 Z M 187.5 17.859375 " fill-opacity="1" fill-rule="nonzero"/></g><g clip-path="url(#c3a4a10ee5)"><path fill="#ffffff" d="M 104.066406 164.972656 C 104.066406 212.210938 187.621094 322.496094 187.621094 322.496094 C 187.621094 322.496094 271.171875 212.210938 271.171875 164.972656 C 269.28125 52.542969 105.964844 52.519531 104.066406 164.972656 Z M 187.621094 207.246094 C 162.328125 207.246094 141.820312 186.761719 141.820312 161.496094 C 141.820312 136.234375 162.328125 115.75 187.621094 115.75 C 212.910156 115.75 233.417969 136.234375 233.417969 161.496094 C 233.417969 186.761719 212.910156 207.246094 187.621094 207.246094 Z M 187.621094 207.246094 " fill-opacity="1" fill-rule="nonzero"/></g></svg>