<svg xmlns="http://www.w3.org/2000/svg" xmlns:xlink="http://www.w3.org/1999/xlink" xmlns:inkscape="http://www.inkscape.org/namespaces/inkscape" version="1.1" width="114.258" height="113.507" viewBox="0 0 114.258 113.507">
<defs>
<clipPath id="clip_1">
<path transform="matrix(1,0,0,-1,0,113.507)" d="M0 113.507H114.258V0H0Z"/>
</clipPath>
</defs>
<g inkscape:groupmode="layer" inkscape:label="Layer 1">
<g clip-path="url(#clip_1)">
<path transform="matrix(1,0,0,-1,109.3345,63.506906)" d="M0 0C0-27.614-22.386-50-50-50-77.614-50-100-27.614-100 0-100 27.614-77.614 50-50 50-22.386 50 0 27.614 0 0" fill="#ce202f"/>
<path transform="matrix(1,0,0,-1,52.6455,113.06351)" d="M0 0C-.525 1.121-3.26 7.071-4.54 11.851-6.788 20.284-6.12 24.746-5.366 26.541-4.086 29.574-.251 31.481 4.358 31.467 4.716 31.467 5.067 31.451 5.43 31.431 10.788 31.074 17.239 28.034 19.279 20.59L19.36 20.284 35.774 27.969 35.902 28.024 36.488 31.65C42.709 31.94 48.895 34.215 53.928 38.055 54.54 38.525 55.123 39.017 55.68 39.519 58.984 42.501 61.242 45.945 61.586 48.682L61.612 48.829 56.587 52.606 35.693 68.313 33.327 80.362 33.317 80.475 23.68 87.583C24.697 91.221 28.469 93.542 29.451 94.087H29.45C26.558 95.568 23.496 96.778 20.311 97.679 22.351 106.931 19.616 113.063 19.616 113.063 10.017 104.918-.503 101.871-6.455 100.587-11.293 99.544-20.189 98.511-28.603 95.277-39.3 91.157-46.903 84.753-50.585 76.747L-50.753 76.364-40.891 76.4C-42.931 73.815-52.915 60.017-52.64 44.495L-44.333 46.632C-43.48 41.275-41.958 36.161-39.921 31.424L-39.924 31.438C-33.442 14.774-18.286 2.445 0 0" fill="#192957"/>
<path transform="matrix(1,0,0,-1,55.7769,60.723707)" d="M0 0C-1.566-1.198-3.201-2.777-4.9-4.735 9.3-7.355 24.69-16.216 26.588-17.33L27.356-17.008C22.855-13.597 20.037-9.733 18.144-7.138L15.155-3.127C13.554-.963 11.124 2.623 7.168 2.819 5.385 2.902 3.466 2.29 1.42 .993L9.263-2.413 8.625-3.721 13.99-6.169 13.418-7.322 17.467-10.277 11.155-7.399 11.644-6.437 6.025-3.954 6.62-2.763Z" fill="#ffffff"/>
<path transform="matrix(1,0,0,-1,68.8242,32.405305)" d="M0 0C.137-.413 3.523-10.142 8.307-11.55 8.709-11.667 9.102-11.687 9.494-11.729 11.529-11.937 12.559-9.912 12.559-9.912 12.54-9.877 12.383-9.572 11.897-8.964 11.376-9.096 10.898-9.162 10.472-9.162 8.918-9.162 7.965-8.395 7.396-7.61 6.615-6.534 6.274-4.99 6.171-3.471 4.739-2.281 3.013-.919 .887 .652L-.603 1.749Z" fill="#ffffff"/>
<path transform="matrix(1,0,0,-1,23.0078,86.29401)" d="M0 0C-4.793 8.868-5.823 19.734-5.742 28.459L-12.966 27.128-12.885 27.521C-12.855 27.685-9.638 42.854 2.229 54.031L-4.977 54.593-4.793 54.949C-4.651 55.22-1.229 61.69 16.405 66.912 32.747 71.757 40.88 75.483 45.234 80.364 41.864 77.819 33.93 73.214 18.887 71.181-4.961 67.952-14.859 55.005-16.771 52.149L-6.073 52.145-6.369 51.716C-6.506 51.528-19.999 32.191-19.53 20.912L-11.744 22.988-11.703 22.687C-11.672 22.519-10.442 14.523-6.629 5.906-4.461 1.016-1.167-4.629 2.749-8.765 7.215-13.491 14.293-18.774 19.948-20.156 17.22-19.503 4.865-9.02 0 0" fill="#ffffff"/>
<path transform="matrix(1,0,0,-1,80.2944,81.837909)" d="M0 0-6.043-2.508C-12.375 3.658-19.651 5.084-24.461 5.495-19.007 6.522-8.792 3.505 0 0M17.261 17.991 25.911 15.793 28.024 17.015 4.039 35.098 2.548 43.233C2.57 38.384 1.566 35.315-.409 34.276-2.102 33.389-4.409 34.041-6.91 36.118-12.892 41.085-15.702 49.152-14.623 53.578-15.515 53.608-17.52 53.547-20.472 52.747-24.188 51.74-30.194 49.321-37.788 43.522L-33.935 40.718-34.246 40.524C-34.266 40.511-36.332 39.196-39.073 35.593-41.586 32.288-45.192 26.334-48.145 16.699L-44.851 15.21-44.887 15.019C-44.921 14.836-48.06-2.876-36.175-16.067-41.591-4.281-36.878 .545-33.482 2.394-25.583 6.692-11.419 2.754-6.691-4.999L4.033-.018 4.177 1.445 3.165 .876 3.05 .929C2.781 1.054-23.984 13.389-34.146 13.961L-34.547 13.983-34.345 14.332C-34.328 14.362-32.532 17.434-29.66 20.485-26.994 23.316-22.826 26.712-18.109 26.81-13.467 26.886-9.187 23.877-5.326 17.812-4.895 17.188-4.474 16.574-4.066 15.979 3.976 4.246 6.726 .232 23.004 9.898 21.55 10.656 16.866 13.44 17.236 17.701Z" fill="#ffffff"/>
</g>
</g>
</svg>
