<svg xmlns="http://www.w3.org/2000/svg" xmlns:xlink="http://www.w3.org/1999/xlink" width="500" zoomAndPan="magnify" viewBox="0 0 375 374.999991" height="500" preserveAspectRatio="xMidYMid meet" version="1.0"><rect x="-37.5" width="450" fill="#ffffff" y="-37.499999" height="449.999989" fill-opacity="1"/><rect x="-37.5" width="450" fill="#0d1216" y="-37.499999" height="449.999989" fill-opacity="1"/><path fill="#ffffff" d="M 187.5 375 C 84.113281 375 0 290.886719 0 187.5 C 0 84.113281 84.113281 0 187.5 0 C 290.886719 0 375 84.113281 375 187.5 C 375 290.886719 290.886719 375 187.5 375 Z M 187.5 17.859375 C 93.957031 17.859375 17.859375 93.957031 17.859375 187.5 C 17.859375 281.039062 93.957031 357.140625 187.5 357.140625 C 281.039062 357.140625 357.140625 281.039062 357.140625 187.5 C 357.140625 93.957031 281.039062 17.859375 187.5 17.859375 Z M 187.5 17.859375 " fill-opacity="1" fill-rule="nonzero"/><path fill="#ffffff" d="M 288.972656 108.953125 L 86.027344 108.953125 C 78.601562 108.953125 72.5625 114.96875 72.5625 122.359375 L 72.5625 245.429688 C 72.5625 256.796875 81.847656 266.046875 93.261719 266.046875 L 281.726562 266.046875 C 293.136719 266.046875 302.429688 256.796875 302.4375 245.429688 L 302.4375 122.359375 C 302.4375 114.96875 296.398438 108.953125 288.972656 108.953125 Z M 193.3125 199.945312 C 189.828125 202.878906 185.152344 202.878906 181.675781 199.945312 L 93.605469 125.824219 L 281.390625 125.824219 Z M 139.324219 186.390625 L 89.503906 236.113281 L 89.503906 144.460938 Z M 152.308594 197.320312 L 170.738281 212.832031 C 180.21875 220.824219 194.738281 220.832031 204.253906 212.832031 L 221.703125 198.148438 L 272.824219 249.171875 L 100.359375 249.171875 Z M 234.691406 187.21875 L 285.492188 144.460938 L 285.492188 237.925781 Z M 234.691406 187.21875 " fill-opacity="1" fill-rule="nonzero"/></svg>