<svg xmlns="http://www.w3.org/2000/svg" xmlns:xlink="http://www.w3.org/1999/xlink" width="500" zoomAndPan="magnify" viewBox="0 0 375 374.999991" height="500" preserveAspectRatio="xMidYMid meet" version="1.0"><defs><clipPath id="a1032295fb"><path d="M 3.675781 3 L 371.324219 3 L 371.324219 370 L 3.675781 370 Z M 3.675781 3 " clip-rule="nonzero"/></clipPath><clipPath id="627e133b1b"><path d="M 371.324219 187.5 C 371.324219 85.976562 289.023438 3.675781 187.5 3.675781 C 85.976562 3.675781 3.675781 85.976562 3.675781 187.5 C 3.675781 273.707031 63.023438 346.042969 143.09375 365.910156 L 143.09375 243.675781 L 105.183594 243.675781 L 105.183594 187.5 L 143.089844 187.5 L 143.089844 163.292969 C 143.089844 100.726562 171.40625 71.726562 232.832031 71.726562 C 244.476562 71.726562 264.574219 74.007812 272.792969 76.292969 L 272.792969 127.214844 C 268.457031 126.757812 260.917969 126.53125 251.558594 126.53125 C 221.417969 126.53125 209.773438 137.949219 209.773438 167.632812 L 209.773438 187.5 L 269.816406 187.5 L 259.5 243.675781 L 209.773438 243.675781 L 209.773438 369.976562 C 300.785156 358.984375 371.324219 281.484375 371.324219 187.5 " clip-rule="nonzero"/></clipPath><clipPath id="84237ec391"><path d="M 0.675781 0.601562 L 368.324219 0.601562 L 368.324219 367 L 0.675781 367 Z M 0.675781 0.601562 " clip-rule="nonzero"/></clipPath><clipPath id="4b3f7988da"><path d="M 368.324219 184.5 C 368.324219 82.976562 286.023438 0.675781 184.5 0.675781 C 82.976562 0.675781 0.675781 82.976562 0.675781 184.5 C 0.675781 270.707031 60.023438 343.042969 140.09375 362.910156 L 140.09375 240.675781 L 102.183594 240.675781 L 102.183594 184.5 L 140.089844 184.5 L 140.089844 160.292969 C 140.089844 97.726562 168.40625 68.726562 229.832031 68.726562 C 241.476562 68.726562 261.574219 71.007812 269.792969 73.292969 L 269.792969 124.214844 C 265.457031 123.757812 257.917969 123.53125 248.558594 123.53125 C 218.417969 123.53125 206.773438 134.949219 206.773438 164.632812 L 206.773438 184.5 L 266.816406 184.5 L 256.5 240.675781 L 206.773438 240.675781 L 206.773438 366.976562 C 297.785156 355.984375 368.324219 278.484375 368.324219 184.5 " clip-rule="nonzero"/></clipPath><clipPath id="3cbf6a8925"><rect x="0" width="369" y="0" height="367"/></clipPath><clipPath id="50aab6325d"><path d="M 105.148438 71.324219 L 272.792969 71.324219 L 272.792969 371.324219 L 105.148438 371.324219 Z M 105.148438 71.324219 " clip-rule="nonzero"/></clipPath><clipPath id="d1ba212ca4"><path d="M 259.5 243.675781 L 269.816406 187.5 L 209.773438 187.5 L 209.773438 167.632812 C 209.773438 137.949219 221.417969 126.53125 251.558594 126.53125 C 260.917969 126.53125 268.457031 126.757812 272.792969 127.214844 L 272.792969 76.292969 C 264.574219 74.007812 244.476562 71.726562 232.832031 71.726562 C 171.40625 71.726562 143.089844 100.726562 143.089844 163.292969 L 143.089844 187.5 L 105.183594 187.5 L 105.183594 243.675781 L 143.089844 243.675781 L 143.089844 365.910156 C 157.308594 369.441406 172.183594 371.324219 187.492188 371.324219 C 195.03125 371.324219 202.464844 370.859375 209.765625 369.976562 L 209.765625 243.675781 Z M 259.5 243.675781 " clip-rule="nonzero"/></clipPath><clipPath id="3c1e898e3d"><path d="M 0.148438 0.519531 L 167.792969 0.519531 L 167.792969 300.324219 L 0.148438 300.324219 Z M 0.148438 0.519531 " clip-rule="nonzero"/></clipPath><clipPath id="b12d3a9295"><path d="M 154.5 172.675781 L 164.816406 116.5 L 104.773438 116.5 L 104.773438 96.632812 C 104.773438 66.949219 116.417969 55.53125 146.558594 55.53125 C 155.917969 55.53125 163.457031 55.757812 167.792969 56.214844 L 167.792969 5.292969 C 159.574219 3.007812 139.476562 0.726562 127.832031 0.726562 C 66.40625 0.726562 38.089844 29.726562 38.089844 92.292969 L 38.089844 116.5 L 0.183594 116.5 L 0.183594 172.675781 L 38.089844 172.675781 L 38.089844 294.910156 C 52.308594 298.441406 67.183594 300.324219 82.492188 300.324219 C 90.03125 300.324219 97.464844 299.859375 104.765625 298.976562 L 104.765625 172.675781 Z M 154.5 172.675781 " clip-rule="nonzero"/></clipPath><clipPath id="9b1e949b50"><rect x="0" width="168" y="0" height="301"/></clipPath><clipPath id="99b3494fba"><path d="M 143.277344 263.125 L 209.816406 263.125 L 209.816406 375 L 143.277344 375 Z M 143.277344 263.125 " clip-rule="nonzero"/></clipPath><clipPath id="587306b486"><path d="M 0.277344 0.125 L 66.816406 0.125 L 66.816406 112 L 0.277344 112 Z M 0.277344 0.125 " clip-rule="nonzero"/></clipPath><clipPath id="3aa31cdaf1"><rect x="0" width="67" y="0" height="112"/></clipPath></defs><rect x="-37.5" width="450" fill="#ffffff" y="-37.499999" height="449.999989" fill-opacity="1"/><rect x="-37.5" width="450" fill="#0866ff" y="-37.499999" height="449.999989" fill-opacity="1"/><g clip-path="url(#a1032295fb)"><g clip-path="url(#627e133b1b)"><g transform="matrix(1, 0, 0, 1, 3, 3)"><g clip-path="url(#3cbf6a8925)"><g clip-path="url(#84237ec391)"><g clip-path="url(#4b3f7988da)"><rect x="-85.5" width="540" fill="#0866ff" height="539.999987" y="-85.499998" fill-opacity="1"/></g></g></g></g></g></g><g clip-path="url(#50aab6325d)"><g clip-path="url(#d1ba212ca4)"><g transform="matrix(1, 0, 0, 1, 105, 71)"><g clip-path="url(#9b1e949b50)"><g clip-path="url(#3c1e898e3d)"><g clip-path="url(#b12d3a9295)"><rect x="-187.5" width="540" fill="#ffffff" height="539.999987" y="-153.499998" fill-opacity="1"/></g></g></g></g></g></g><g clip-path="url(#99b3494fba)"><g transform="matrix(1, 0, 0, 1, 143, 263)"><g clip-path="url(#3aa31cdaf1)"><g clip-path="url(#587306b486)"><path fill="#ffffff" d="M 0.277344 0.125 L 66.816406 0.125 L 66.816406 120.460938 L 0.277344 120.460938 Z M 0.277344 0.125 " fill-opacity="1" fill-rule="nonzero"/></g></g></g></g></svg>