<svg xmlns="http://www.w3.org/2000/svg" xmlns:xlink="http://www.w3.org/1999/xlink" width="500" zoomAndPan="magnify" viewBox="0 0 375 374.999991" height="500" preserveAspectRatio="xMidYMid meet" version="1.0"><defs><clipPath id="ccfcc44466"><path d="M 303.878906 0 L 375 0 L 375 375 L 303.878906 375 Z M 303.878906 0 " clip-rule="nonzero"/></clipPath><clipPath id="1d7e6dd12b"><path d="M 73.273438 74 L 301 74 L 301 301.414062 L 73.273438 301.414062 Z M 73.273438 74 " clip-rule="nonzero"/></clipPath><clipPath id="7de0dc4dfe"><path d="M 0 267.078125 L 375 267.078125 L 375 375 L 0 375 Z M 0 267.078125 " clip-rule="nonzero"/></clipPath><clipPath id="902ffff477"><path d="M 0 0 L 375 0 L 375 108 L 0 108 Z M 0 0 " clip-rule="nonzero"/></clipPath><clipPath id="a530f580f6"><path d="M 0 0 L 71.25 0 L 71.25 375 L 0 375 Z M 0 0 " clip-rule="nonzero"/></clipPath></defs><rect x="-37.5" width="450" fill="#ffffff" y="-37.499999" height="449.999989" fill-opacity="1"/><rect x="-37.5" width="450" fill="#0d1216" y="-37.499999" height="449.999989" fill-opacity="1"/><g clip-path="url(#ccfcc44466)"><path fill="#ffffff" d="M 187.5 375 C 84.113281 375 0 290.886719 0 187.5 C 0 84.113281 84.113281 0 187.5 0 C 290.886719 0 375 84.113281 375 187.5 C 375 290.886719 290.886719 375 187.5 375 Z M 187.5 17.859375 C 93.957031 17.859375 17.859375 93.957031 17.859375 187.5 C 17.859375 281.039062 93.957031 357.140625 187.5 357.140625 C 281.039062 357.140625 357.140625 281.039062 357.140625 187.5 C 357.140625 93.957031 281.039062 17.859375 187.5 17.859375 Z M 187.5 17.859375 " fill-opacity="1" fill-rule="nonzero"/></g><g clip-path="url(#1d7e6dd12b)"><path fill="#ffffff" d="M 288.808594 228.472656 L 245.71875 206.191406 C 236.199219 201.269531 224.503906 203.828125 217.917969 212.28125 L 206.332031 227.132812 C 194.945312 220.59375 184.96875 213.523438 173.464844 202.019531 C 161.566406 190.121094 154.601562 180.238281 147.988281 168.480469 L 162.667969 157.027344 C 171.113281 150.4375 173.671875 138.742188 168.753906 129.226562 L 146.585938 86.359375 C 143.675781 80.738281 138.492188 76.605469 132.363281 75.023438 C 126.238281 73.441406 119.699219 74.542969 114.433594 78.058594 L 86.992188 96.355469 C 78.253906 102.183594 73.261719 112.3125 73.96875 122.792969 C 74.71875 133.933594 75.910156 142.683594 77.503906 148.800781 C 85.839844 180.882812 105.789062 213.914062 133.683594 241.804688 C 161.574219 269.695312 194.601562 289.644531 226.679688 297.984375 C 232.824219 299.585938 241.613281 300.769531 252.800781 301.503906 C 253.441406 301.542969 254.078125 301.566406 254.71875 301.566406 C 264.660156 301.566406 274 296.515625 279.433594 288.082031 L 297.304688 260.328125 C 300.695312 255.0625 301.714844 248.570312 300.101562 242.519531 C 298.484375 236.472656 294.371094 231.351562 288.808594 228.472656 Z M 283.769531 251.609375 L 265.898438 279.367188 C 263.285156 283.429688 258.683594 285.757812 253.851562 285.441406 C 243.824219 284.78125 235.832031 283.730469 230.730469 282.402344 C 201.382812 274.773438 170.960938 256.3125 145.066406 230.421875 C 119.171875 204.527344 100.710938 174.101562 93.082031 144.75 C 91.761719 139.671875 90.703125 131.703125 90.03125 121.710938 C 89.710938 116.96875 91.96875 112.386719 95.925781 109.75 L 123.367188 91.453125 C 124.578125 90.644531 125.78125 90.410156 126.765625 90.410156 C 127.402344 90.410156 127.945312 90.507812 128.339844 90.609375 C 129.339844 90.867188 131.179688 91.621094 132.285156 93.753906 L 154.453125 136.621094 C 155.816406 139.261719 155.105469 142.507812 152.761719 144.335938 L 127.378906 164.144531 L 130.542969 170.109375 C 138.746094 185.566406 146.882812 198.203125 162.082031 213.402344 C 176.871094 228.191406 189.777344 236.570312 204.609375 244.597656 L 210.601562 247.835938 L 230.613281 222.183594 C 232.4375 219.839844 235.683594 219.125 238.324219 220.496094 L 281.414062 242.773438 C 282.976562 243.585938 284.089844 244.96875 284.542969 246.671875 C 285 248.375 284.722656 250.128906 283.769531 251.609375 Z M 283.769531 251.609375 " fill-opacity="1" fill-rule="nonzero"/></g><g clip-path="url(#7de0dc4dfe)"><path fill="#ffffff" d="M 187.5 375 C 84.113281 375 0 290.886719 0 187.5 C 0 84.113281 84.113281 0 187.5 0 C 290.886719 0 375 84.113281 375 187.5 C 375 290.886719 290.886719 375 187.5 375 Z M 187.5 17.859375 C 93.957031 17.859375 17.859375 93.957031 17.859375 187.5 C 17.859375 281.039062 93.957031 357.140625 187.5 357.140625 C 281.039062 357.140625 357.140625 281.039062 357.140625 187.5 C 357.140625 93.957031 281.039062 17.859375 187.5 17.859375 Z M 187.5 17.859375 " fill-opacity="1" fill-rule="nonzero"/></g><g clip-path="url(#902ffff477)"><path fill="#ffffff" d="M 187.5 375 C 84.113281 375 0 290.886719 0 187.5 C 0 84.113281 84.113281 0 187.5 0 C 290.886719 0 375 84.113281 375 187.5 C 375 290.886719 290.886719 375 187.5 375 Z M 187.5 17.859375 C 93.957031 17.859375 17.859375 93.957031 17.859375 187.5 C 17.859375 281.039062 93.957031 357.140625 187.5 357.140625 C 281.039062 357.140625 357.140625 281.039062 357.140625 187.5 C 357.140625 93.957031 281.039062 17.859375 187.5 17.859375 Z M 187.5 17.859375 " fill-opacity="1" fill-rule="nonzero"/></g><g clip-path="url(#a530f580f6)"><path fill="#ffffff" d="M 187.5 375 C 84.113281 375 0 290.886719 0 187.5 C 0 84.113281 84.113281 0 187.5 0 C 290.886719 0 375 84.113281 375 187.5 C 375 290.886719 290.886719 375 187.5 375 Z M 187.5 17.859375 C 93.957031 17.859375 17.859375 93.957031 17.859375 187.5 C 17.859375 281.039062 93.957031 357.140625 187.5 357.140625 C 281.039062 357.140625 357.140625 281.039062 357.140625 187.5 C 357.140625 93.957031 281.039062 17.859375 187.5 17.859375 Z M 187.5 17.859375 " fill-opacity="1" fill-rule="nonzero"/></g></svg>