<svg xmlns="http://www.w3.org/2000/svg" xmlns:xlink="http://www.w3.org/1999/xlink" width="500" zoomAndPan="magnify" viewBox="0 0 375 374.999991" height="500" preserveAspectRatio="xMidYMid meet" version="1.0"><rect x="-37.5" width="450" fill="#ffffff" y="-37.499999" height="449.999989" fill-opacity="1"/><rect x="-37.5" width="450" fill="#fffc00" y="-37.499999" height="449.999989" fill-opacity="1"/><path fill="#fffc00" d="M 0.144531 279.617188 L 0.144531 279.636719 C 0.371094 287.960938 0.4375 296.332031 1.84375 304.605469 C 3.332031 313.359375 5.457031 321.894531 9.515625 329.839844 C 15.003906 340.589844 22.539062 349.671875 32.046875 357.085938 C 38.875 362.414062 46.335938 366.640625 54.59375 369.308594 C 66.632812 373.191406 79.054688 374.679688 91.660156 374.753906 C 99.523438 374.804688 107.378906 375 115.246094 374.96875 C 172.371094 374.726562 229.496094 375.378906 286.625 374.613281 C 294.203125 374.511719 301.660156 373.585938 309.101562 372.226562 C 323.359375 369.617188 335.960938 363.53125 346.742188 353.914062 C 359.308594 342.703125 367.789062 328.988281 371.617188 312.433594 C 374.121094 301.613281 374.746094 290.632812 374.855469 279.617188 L 374.855469 277.421875 C 374.855469 276.566406 374.527344 90.230469 374.5 87.765625 C 374.414062 81 373.917969 74.285156 372.648438 67.628906 C 371.105469 59.515625 368.925781 51.609375 365.042969 44.273438 C 360.941406 36.519531 355.800781 29.546875 349.449219 23.453125 C 339.714844 14.117188 328.480469 7.519531 315.402344 4.027344 C 303.589844 0.871094 291.539062 0.175781 279.402344 0.1875 C 279.382812 0.183594 279.335938 0.0585938 279.332031 0 L 95.609375 0 C 95.605469 0.0625 95.601562 0.125 95.597656 0.1875 C 88.707031 0.3125 81.808594 0.261719 74.957031 1.109375 C 67.445312 2.042969 60.011719 3.449219 52.902344 6.074219 C 41.710938 10.214844 31.984375 16.664062 23.675781 25.273438 C 14.265625 35.027344 7.628906 46.308594 4.109375 59.441406 C 0.96875 71.164062 0.285156 83.117188 0.269531 95.152344 " fill-opacity="1" fill-rule="nonzero"/><path fill="#ffffff" d="M 189.199219 316.394531 C 188.421875 316.394531 187.679688 316.363281 187.113281 316.335938 C 186.667969 316.375 186.203125 316.394531 185.738281 316.394531 C 169.390625 316.394531 158.457031 308.664062 148.8125 301.839844 C 141.898438 296.953125 135.375 292.34375 127.738281 291.074219 C 123.984375 290.449219 120.253906 290.136719 116.648438 290.136719 C 110.148438 290.136719 105.015625 291.144531 101.265625 291.875 C 98.957031 292.324219 96.96875 292.710938 95.429688 292.710938 C 93.820312 292.710938 91.863281 292.355469 91.050781 289.570312 C 90.402344 287.375 89.9375 285.246094 89.492188 283.199219 C 88.371094 278.078125 87.5625 274.953125 85.644531 274.65625 C 65.136719 271.492188 53.023438 266.832031 50.609375 261.1875 C 50.355469 260.59375 50.214844 259.996094 50.183594 259.40625 C 50.089844 257.722656 51.277344 256.25 52.933594 255.972656 C 69.21875 253.292969 83.699219 244.6875 95.972656 230.382812 C 105.484375 219.3125 110.152344 208.734375 110.652344 207.566406 C 110.675781 207.511719 110.699219 207.457031 110.726562 207.40625 C 113.09375 202.605469 113.5625 198.457031 112.128906 195.082031 C 109.488281 188.847656 100.738281 186.074219 94.949219 184.234375 C 93.507812 183.78125 92.144531 183.347656 91.0625 182.917969 C 85.929688 180.890625 77.488281 176.609375 78.613281 170.695312 C 79.433594 166.386719 85.132812 163.382812 89.742188 163.382812 C 91.023438 163.382812 92.15625 163.609375 93.109375 164.054688 C 98.316406 166.496094 103.003906 167.730469 107.03125 167.730469 C 112.042969 167.730469 114.460938 165.824219 115.046875 165.28125 C 114.902344 162.609375 114.726562 159.785156 114.554688 157.109375 C 114.554688 157.109375 114.550781 157.074219 114.550781 157.074219 C 113.375 138.367188 111.910156 115.085938 117.863281 101.734375 C 135.6875 61.765625 173.492188 58.660156 184.648438 58.660156 C 184.945312 58.660156 189.511719 58.613281 189.511719 58.613281 C 189.71875 58.609375 189.941406 58.609375 190.171875 58.609375 C 201.359375 58.609375 239.242188 61.71875 257.078125 101.707031 C 263.03125 115.070312 261.566406 138.371094 260.386719 157.101562 L 260.328125 157.996094 C 260.167969 160.539062 260.019531 162.945312 259.890625 165.28125 C 260.441406 165.785156 262.65625 167.535156 267.164062 167.710938 C 271.003906 167.566406 275.417969 166.335938 280.277344 164.058594 C 281.78125 163.351562 283.445312 163.207031 284.574219 163.207031 C 286.28125 163.207031 288.019531 163.539062 289.464844 164.144531 L 289.542969 164.171875 C 293.667969 165.636719 296.367188 168.5625 296.425781 171.636719 C 296.476562 174.5 294.347656 178.785156 283.875 182.917969 C 282.804688 183.34375 281.4375 183.777344 279.988281 184.238281 C 274.195312 186.078125 265.453125 188.851562 262.808594 195.078125 C 261.375 198.457031 261.847656 202.601562 264.214844 207.402344 C 264.238281 207.453125 264.261719 207.507812 264.289062 207.5625 C 265.015625 209.269531 282.652344 249.488281 322.003906 255.96875 C 323.664062 256.246094 324.851562 257.722656 324.757812 259.402344 C 324.722656 260.007812 324.578125 260.609375 324.324219 261.199219 C 321.925781 266.8125 309.8125 271.464844 289.300781 274.636719 C 287.375 274.933594 286.5625 278.042969 285.453125 283.136719 C 284.996094 285.242188 284.527344 287.304688 283.890625 289.46875 C 283.292969 291.507812 281.964844 292.503906 279.835938 292.503906 L 279.511719 292.503906 C 278.125 292.503906 276.15625 292.253906 273.675781 291.765625 C 269.339844 290.921875 264.480469 290.136719 258.296875 290.136719 C 254.691406 290.136719 250.957031 290.453125 247.203125 291.074219 C 239.570312 292.347656 233.050781 296.949219 226.148438 301.828125 C 216.484375 308.664062 205.546875 316.394531 189.199219 316.394531 " fill-opacity="1" fill-rule="nonzero"/><path fill="#020202" d="M 190.171875 61.902344 C 200.707031 61.902344 236.976562 64.730469 254.070312 103.050781 C 259.695312 115.667969 258.253906 138.527344 257.097656 156.886719 C 256.917969 159.800781 256.738281 162.628906 256.589844 165.324219 L 256.53125 166.484375 L 257.304688 167.347656 C 257.617188 167.695312 260.542969 170.75 267.050781 171.003906 L 267.152344 171.007812 L 267.261719 171.007812 C 271.566406 170.84375 276.410156 169.503906 281.675781 167.039062 C 282.449219 166.675781 283.480469 166.5 284.574219 166.5 C 285.816406 166.5 287.136719 166.734375 288.226562 167.195312 L 288.394531 167.257812 C 291.152344 168.226562 293.101562 170.050781 293.132812 171.699219 C 293.148438 172.632812 292.453125 175.992188 282.671875 179.855469 C 281.714844 180.234375 280.457031 180.632812 278.996094 181.09375 C 272.632812 183.117188 263.015625 186.167969 259.777344 193.792969 C 257.953125 198.089844 258.453125 203.160156 261.257812 208.859375 C 262.414062 211.554688 280.582031 252.484375 321.46875 259.21875 C 321.460938 259.414062 321.414062 259.625 321.304688 259.875 C 320.609375 261.507812 316.207031 267.148438 288.796875 271.378906 C 284.507812 272.035156 283.457031 276.84375 282.238281 282.429688 C 281.796875 284.433594 281.351562 286.453125 280.734375 288.539062 C 280.546875 289.167969 280.511719 289.203125 279.835938 289.203125 C 279.742188 289.203125 279.632812 289.203125 279.515625 289.203125 C 278.300781 289.203125 276.453125 288.953125 274.316406 288.53125 C 270.421875 287.773438 265.101562 286.84375 258.296875 286.84375 C 254.5 286.84375 250.589844 287.171875 246.667969 287.828125 C 238.277344 289.222656 231.457031 294.046875 224.234375 299.152344 C 214.53125 306.007812 204.503906 313.101562 189.207031 313.101562 C 188.539062 313.101562 187.886719 313.082031 187.230469 313.046875 L 187.058594 313.039062 L 186.886719 313.054688 C 186.511719 313.085938 186.132812 313.101562 185.746094 313.101562 C 170.449219 313.101562 160.417969 306.011719 150.722656 299.152344 C 143.496094 294.046875 136.671875 289.222656 128.285156 287.828125 C 124.363281 287.175781 120.449219 286.84375 116.65625 286.84375 C 109.855469 286.84375 104.527344 287.882812 100.640625 288.644531 C 98.5 289.0625 96.648438 289.421875 95.4375 289.421875 C 94.445312 289.421875 94.425781 289.363281 94.21875 288.644531 C 93.601562 286.558594 93.152344 284.488281 92.714844 282.492188 C 91.492188 276.898438 90.441406 272.0625 86.15625 271.40625 C 58.746094 267.171875 54.34375 261.523438 53.648438 259.894531 C 53.539062 259.640625 53.488281 259.421875 53.476562 259.226562 C 94.363281 252.496094 112.53125 211.566406 113.6875 208.859375 C 116.5 203.164062 116.996094 198.09375 115.167969 193.792969 C 111.933594 186.171875 102.316406 183.117188 95.957031 181.097656 C 94.492188 180.636719 93.234375 180.234375 92.277344 179.855469 C 84.015625 176.59375 81.476562 173.304688 81.855469 171.3125 C 82.292969 169.015625 86.273438 166.679688 89.75 166.679688 C 90.53125 166.679688 91.214844 166.804688 91.722656 167.042969 C 97.367188 169.6875 102.519531 171.027344 107.042969 171.027344 C 114.148438 171.027344 117.308594 167.722656 117.648438 167.34375 L 118.417969 166.484375 L 118.355469 165.332031 C 118.214844 162.636719 118.035156 159.8125 117.851562 156.902344 C 116.695312 138.535156 115.253906 115.695312 120.878906 103.074219 C 137.910156 64.894531 174.003906 61.953125 184.65625 61.953125 C 184.917969 61.953125 189.550781 61.90625 189.550781 61.90625 C 189.742188 61.902344 189.953125 61.902344 190.171875 61.902344 M 190.171875 55.316406 L 190.160156 55.316406 C 189.917969 55.316406 189.6875 55.316406 189.472656 55.316406 C 187.742188 55.335938 184.894531 55.363281 184.640625 55.367188 C 178.398438 55.367188 165.910156 56.246094 152.492188 62.167969 C 144.824219 65.550781 137.925781 70.125 131.988281 75.765625 C 124.910156 82.484375 119.144531 90.769531 114.855469 100.390625 C 108.570312 114.480469 110.0625 138.214844 111.261719 157.285156 L 111.265625 157.316406 C 111.394531 159.359375 111.527344 161.492188 111.652344 163.570312 C 110.730469 163.992188 109.234375 164.4375 107.035156 164.4375 C 103.488281 164.4375 99.273438 163.304688 94.507812 161.074219 C 93.109375 160.421875 91.507812 160.089844 89.742188 160.089844 C 86.90625 160.089844 83.914062 160.925781 81.320312 162.449219 C 78.058594 164.367188 75.949219 167.074219 75.375 170.078125 C 74.996094 172.066406 75.015625 175.992188 79.378906 179.972656 C 81.777344 182.164062 85.300781 184.1875 89.847656 185.984375 C 91.042969 186.453125 92.457031 186.902344 93.957031 187.378906 C 99.164062 189.03125 107.042969 191.53125 109.101562 196.367188 C 110.140625 198.820312 109.691406 202.046875 107.769531 205.949219 C 107.722656 206.054688 107.671875 206.15625 107.625 206.265625 C 107.144531 207.390625 102.664062 217.535156 93.476562 228.238281 C 88.253906 234.324219 82.503906 239.410156 76.390625 243.359375 C 68.929688 248.183594 60.859375 251.332031 52.398438 252.726562 C 49.078125 253.273438 46.707031 256.230469 46.890625 259.59375 C 46.949219 260.5625 47.175781 261.53125 47.570312 262.464844 C 47.574219 262.46875 47.578125 262.476562 47.578125 262.480469 C 48.921875 265.621094 52.035156 268.292969 57.097656 270.644531 C 63.285156 273.519531 72.535156 275.933594 84.59375 277.824219 C 85.203125 278.984375 85.835938 281.894531 86.273438 283.890625 C 86.730469 286.007812 87.207031 288.1875 87.890625 290.5 C 88.625 293.007812 90.53125 296.003906 95.429688 296.003906 C 97.289062 296.003906 99.421875 295.585938 101.894531 295.109375 C 105.515625 294.398438 110.46875 293.429688 116.648438 293.429688 C 120.074219 293.429688 123.625 293.730469 127.199219 294.324219 C 134.089844 295.472656 140.027344 299.667969 146.898438 304.523438 C 156.957031 311.636719 168.34375 319.683594 185.738281 319.683594 C 186.214844 319.683594 186.691406 319.667969 187.160156 319.636719 C 187.734375 319.664062 188.449219 319.683594 189.199219 319.683594 C 206.601562 319.683594 217.984375 311.632812 228.03125 304.527344 L 228.046875 304.511719 C 234.921875 299.660156 240.851562 295.472656 247.742188 294.324219 C 251.3125 293.730469 254.863281 293.429688 258.292969 293.429688 C 264.195312 293.429688 268.871094 294.179688 273.042969 294.996094 C 275.765625 295.53125 277.882812 295.789062 279.507812 295.789062 L 279.667969 295.792969 L 279.832031 295.792969 C 283.414062 295.792969 286.046875 293.824219 287.050781 290.382812 C 287.71875 288.117188 288.195312 285.992188 288.667969 283.835938 C 289.074219 281.96875 289.730469 278.972656 290.339844 277.800781 C 302.40625 275.90625 311.652344 273.496094 317.839844 270.621094 C 322.890625 268.28125 326 265.613281 327.351562 262.488281 C 327.753906 261.546875 327.992188 260.578125 328.046875 259.585938 C 328.234375 256.230469 325.859375 253.265625 322.535156 252.71875 C 284.949219 246.523438 268.015625 207.902344 267.3125 206.261719 C 267.269531 206.152344 267.21875 206.046875 267.164062 205.941406 C 265.242188 202.039062 264.800781 198.816406 265.839844 196.359375 C 267.890625 191.527344 275.765625 189.027344 280.976562 187.375 C 282.484375 186.898438 283.90625 186.449219 285.089844 185.980469 C 290.21875 183.953125 293.886719 181.757812 296.304688 179.261719 C 299.191406 176.285156 299.753906 173.433594 299.71875 171.570312 C 299.632812 167.058594 296.183594 163.046875 290.695312 161.082031 C 288.839844 160.316406 286.726562 159.910156 284.574219 159.910156 C 283.109375 159.910156 280.9375 160.113281 278.882812 161.070312 C 274.484375 163.128906 270.546875 164.253906 267.164062 164.414062 C 265.367188 164.324219 264.105469 163.933594 263.289062 163.5625 C 263.390625 161.800781 263.503906 159.992188 263.621094 158.105469 L 263.671875 157.300781 C 264.875 138.214844 266.371094 114.464844 260.085938 100.363281 C 255.777344 90.707031 249.992188 82.402344 242.886719 75.667969 C 236.925781 70.023438 230.003906 65.453125 222.308594 62.070312 C 208.910156 56.191406 196.421875 55.316406 190.171875 55.316406 " fill-opacity="1" fill-rule="nonzero"/></svg>