<svg xmlns="http://www.w3.org/2000/svg" xmlns:xlink="http://www.w3.org/1999/xlink" width="500" zoomAndPan="magnify" viewBox="0 0 375 374.999991" height="500" preserveAspectRatio="xMidYMid meet" version="1.0"><defs><clipPath id="10fe0aa53d"><path d="M 303.878906 0 L 375 0 L 375 375 L 303.878906 375 Z M 303.878906 0 " clip-rule="nonzero"/></clipPath><clipPath id="88bb2466f6"><path d="M 0 267.078125 L 375 267.078125 L 375 375 L 0 375 Z M 0 267.078125 " clip-rule="nonzero"/></clipPath><clipPath id="6230dfa92a"><path d="M 0 0 L 375 0 L 375 108 L 0 108 Z M 0 0 " clip-rule="nonzero"/></clipPath><clipPath id="8a2ac00b48"><path d="M 0 0 L 71.25 0 L 71.25 375 L 0 375 Z M 0 0 " clip-rule="nonzero"/></clipPath><clipPath id="93629e056e"><path d="M 59.886719 59.886719 L 314.886719 59.886719 L 314.886719 314.886719 L 59.886719 314.886719 Z M 59.886719 59.886719 " clip-rule="nonzero"/></clipPath></defs><rect x="-37.5" width="450" fill="#ffffff" y="-37.499999" height="449.999989" fill-opacity="1"/><rect x="-37.5" width="450" fill="#0d1216" y="-37.499999" height="449.999989" fill-opacity="1"/><g clip-path="url(#10fe0aa53d)"><path fill="#ffffff" d="M 187.5 375 C 84.113281 375 0 290.886719 0 187.5 C 0 84.113281 84.113281 0 187.5 0 C 290.886719 0 375 84.113281 375 187.5 C 375 290.886719 290.886719 375 187.5 375 Z M 187.5 17.859375 C 93.957031 17.859375 17.859375 93.957031 17.859375 187.5 C 17.859375 281.039062 93.957031 357.140625 187.5 357.140625 C 281.039062 357.140625 357.140625 281.039062 357.140625 187.5 C 357.140625 93.957031 281.039062 17.859375 187.5 17.859375 Z M 187.5 17.859375 " fill-opacity="1" fill-rule="nonzero"/></g><g clip-path="url(#88bb2466f6)"><path fill="#ffffff" d="M 187.5 375 C 84.113281 375 0 290.886719 0 187.5 C 0 84.113281 84.113281 0 187.5 0 C 290.886719 0 375 84.113281 375 187.5 C 375 290.886719 290.886719 375 187.5 375 Z M 187.5 17.859375 C 93.957031 17.859375 17.859375 93.957031 17.859375 187.5 C 17.859375 281.039062 93.957031 357.140625 187.5 357.140625 C 281.039062 357.140625 357.140625 281.039062 357.140625 187.5 C 357.140625 93.957031 281.039062 17.859375 187.5 17.859375 Z M 187.5 17.859375 " fill-opacity="1" fill-rule="nonzero"/></g><g clip-path="url(#6230dfa92a)"><path fill="#ffffff" d="M 187.5 375 C 84.113281 375 0 290.886719 0 187.5 C 0 84.113281 84.113281 0 187.5 0 C 290.886719 0 375 84.113281 375 187.5 C 375 290.886719 290.886719 375 187.5 375 Z M 187.5 17.859375 C 93.957031 17.859375 17.859375 93.957031 17.859375 187.5 C 17.859375 281.039062 93.957031 357.140625 187.5 357.140625 C 281.039062 357.140625 357.140625 281.039062 357.140625 187.5 C 357.140625 93.957031 281.039062 17.859375 187.5 17.859375 Z M 187.5 17.859375 " fill-opacity="1" fill-rule="nonzero"/></g><g clip-path="url(#8a2ac00b48)"><path fill="#ffffff" d="M 187.5 375 C 84.113281 375 0 290.886719 0 187.5 C 0 84.113281 84.113281 0 187.5 0 C 290.886719 0 375 84.113281 375 187.5 C 375 290.886719 290.886719 375 187.5 375 Z M 187.5 17.859375 C 93.957031 17.859375 17.859375 93.957031 17.859375 187.5 C 17.859375 281.039062 93.957031 357.140625 187.5 357.140625 C 281.039062 357.140625 357.140625 281.039062 357.140625 187.5 C 357.140625 93.957031 281.039062 17.859375 187.5 17.859375 Z M 187.5 17.859375 " fill-opacity="1" fill-rule="nonzero"/></g><g clip-path="url(#93629e056e)"><path fill="#ffffff" d="M 187.5 59.886719 C 185.410156 59.886719 183.324219 59.9375 181.238281 60.042969 C 179.152344 60.144531 177.070312 60.296875 174.992188 60.503906 C 172.914062 60.707031 170.839844 60.960938 168.773438 61.269531 C 166.710938 61.574219 164.652344 61.933594 162.605469 62.339844 C 160.554688 62.746094 158.519531 63.203125 156.492188 63.710938 C 154.464844 64.21875 152.453125 64.777344 150.457031 65.382812 C 148.457031 65.988281 146.476562 66.644531 144.507812 67.347656 C 142.542969 68.050781 140.59375 68.800781 138.664062 69.601562 C 136.734375 70.402344 134.828125 71.246094 132.9375 72.140625 C 131.050781 73.03125 129.1875 73.972656 127.34375 74.957031 C 125.5 75.941406 123.683594 76.96875 121.894531 78.042969 C 120.101562 79.117188 118.339844 80.234375 116.601562 81.394531 C 114.867188 82.554688 113.160156 83.757812 111.480469 85 C 109.804688 86.246094 108.15625 87.53125 106.542969 88.855469 C 104.929688 90.179688 103.347656 91.542969 101.800781 92.945312 C 100.253906 94.347656 98.742188 95.789062 97.265625 97.265625 C 95.789062 98.742188 94.347656 100.253906 92.945312 101.800781 C 91.542969 103.347656 90.179688 104.929688 88.855469 106.542969 C 87.53125 108.15625 86.246094 109.804688 85 111.480469 C 83.757812 113.160156 82.554688 114.867188 81.394531 116.601562 C 80.234375 118.339844 79.117188 120.101562 78.042969 121.894531 C 76.96875 123.683594 75.941406 125.5 74.957031 127.34375 C 73.972656 129.1875 73.03125 131.050781 72.140625 132.9375 C 71.246094 134.828125 70.402344 136.734375 69.601562 138.664062 C 68.800781 140.59375 68.050781 142.542969 67.347656 144.507812 C 66.644531 146.476562 65.988281 148.457031 65.382812 150.457031 C 64.777344 152.453125 64.21875 154.464844 63.710938 156.492188 C 63.203125 158.519531 62.746094 160.554688 62.339844 162.605469 C 61.933594 164.652344 61.574219 166.710938 61.269531 168.773438 C 60.960938 170.839844 60.707031 172.914062 60.503906 174.992188 C 60.296875 177.070312 60.144531 179.152344 60.042969 181.238281 C 59.9375 183.324219 59.886719 185.410156 59.886719 187.5 C 59.886719 189.585938 59.9375 191.675781 60.042969 193.761719 C 60.144531 195.847656 60.296875 197.929688 60.503906 200.007812 C 60.707031 202.085938 60.960938 204.15625 61.269531 206.222656 C 61.574219 208.289062 61.933594 210.347656 62.339844 212.394531 C 62.746094 214.445312 63.203125 216.480469 63.710938 218.507812 C 64.21875 220.53125 64.777344 222.542969 65.382812 224.542969 C 65.988281 226.542969 66.644531 228.523438 67.347656 230.492188 C 68.050781 232.457031 68.800781 234.40625 69.601562 236.335938 C 70.402344 238.261719 71.246094 240.171875 72.140625 242.058594 C 73.03125 243.949219 73.972656 245.8125 74.957031 247.65625 C 75.941406 249.496094 76.96875 251.3125 78.042969 253.105469 C 79.117188 254.894531 80.234375 256.660156 81.394531 258.394531 C 82.554688 260.132812 83.757812 261.839844 85 263.515625 C 86.246094 265.195312 87.53125 266.839844 88.855469 268.453125 C 90.179688 270.070312 91.542969 271.648438 92.945312 273.199219 C 94.347656 274.746094 95.789062 276.257812 97.265625 277.734375 C 98.742188 279.210938 100.253906 280.652344 101.800781 282.054688 C 103.347656 283.457031 104.929688 284.820312 106.542969 286.144531 C 108.15625 287.46875 109.804688 288.753906 111.480469 289.996094 C 113.160156 291.242188 114.867188 292.445312 116.601562 293.605469 C 118.339844 294.765625 120.101562 295.882812 121.894531 296.957031 C 123.683594 298.027344 125.5 299.058594 127.34375 300.042969 C 129.1875 301.027344 131.050781 301.964844 132.9375 302.859375 C 134.828125 303.75 136.734375 304.597656 138.664062 305.398438 C 140.59375 306.195312 142.542969 306.949219 144.507812 307.652344 C 146.476562 308.355469 148.457031 309.007812 150.457031 309.617188 C 152.453125 310.222656 154.464844 310.777344 156.492188 311.285156 C 158.519531 311.792969 160.554688 312.25 162.605469 312.660156 C 164.652344 313.066406 166.710938 313.421875 168.773438 313.730469 C 170.839844 314.035156 172.914062 314.292969 174.992188 314.496094 C 177.070312 314.699219 179.152344 314.855469 181.238281 314.957031 C 183.324219 315.058594 185.410156 315.109375 187.5 315.109375 C 189.585938 315.109375 191.675781 315.058594 193.761719 314.957031 C 195.847656 314.855469 197.929688 314.699219 200.007812 314.496094 C 202.085938 314.292969 204.15625 314.035156 206.222656 313.730469 C 208.289062 313.421875 210.347656 313.066406 212.394531 312.660156 C 214.445312 312.25 216.480469 311.792969 218.507812 311.285156 C 220.53125 310.777344 222.542969 310.222656 224.542969 309.617188 C 226.542969 309.007812 228.523438 308.355469 230.492188 307.652344 C 232.457031 306.949219 234.40625 306.195312 236.335938 305.398438 C 238.261719 304.597656 240.171875 303.75 242.058594 302.859375 C 243.949219 301.964844 245.8125 301.027344 247.65625 300.042969 C 249.496094 299.058594 251.3125 298.027344 253.105469 296.957031 C 254.894531 295.882812 256.660156 294.765625 258.394531 293.605469 C 260.132812 292.445312 261.839844 291.242188 263.515625 289.996094 C 265.195312 288.753906 266.839844 287.46875 268.457031 286.144531 C 270.070312 284.820312 271.652344 283.457031 273.199219 282.054688 C 274.746094 280.652344 276.257812 279.210938 277.734375 277.734375 C 279.210938 276.257812 280.652344 274.746094 282.054688 273.199219 C 283.457031 271.648438 284.820312 270.070312 286.144531 268.453125 C 287.46875 266.839844 288.753906 265.195312 289.996094 263.515625 C 291.242188 261.839844 292.445312 260.132812 293.605469 258.394531 C 294.765625 256.660156 295.882812 254.894531 296.957031 253.105469 C 298.027344 251.3125 299.058594 249.496094 300.042969 247.65625 C 301.027344 245.8125 301.964844 243.949219 302.859375 242.058594 C 303.75 240.171875 304.597656 238.261719 305.398438 236.335938 C 306.195312 234.40625 306.949219 232.457031 307.652344 230.492188 C 308.355469 228.523438 309.007812 226.542969 309.617188 224.542969 C 310.222656 222.542969 310.777344 220.53125 311.285156 218.507812 C 311.792969 216.480469 312.25 214.445312 312.660156 212.394531 C 313.066406 210.347656 313.421875 208.289062 313.730469 206.222656 C 314.035156 204.15625 314.292969 202.085938 314.496094 200.007812 C 314.699219 197.929688 314.855469 195.847656 314.957031 193.761719 C 315.058594 191.675781 315.109375 189.585938 315.109375 187.5 C 315.109375 185.410156 315.054688 183.324219 314.949219 181.238281 C 314.84375 179.15625 314.691406 177.074219 314.484375 174.996094 C 314.277344 172.917969 314.019531 170.847656 313.710938 168.78125 C 313.402344 166.71875 313.042969 164.660156 312.632812 162.613281 C 312.226562 160.566406 311.765625 158.53125 311.257812 156.503906 C 310.75 154.480469 310.191406 152.46875 309.582031 150.472656 C 308.976562 148.472656 308.320312 146.492188 307.617188 144.527344 C 306.910156 142.5625 306.160156 140.617188 305.359375 138.6875 C 304.558594 136.757812 303.710938 134.851562 302.816406 132.964844 C 301.925781 131.078125 300.984375 129.214844 300 127.371094 C 299.015625 125.53125 297.984375 123.714844 296.910156 121.925781 C 295.835938 120.136719 294.71875 118.371094 293.558594 116.636719 C 292.398438 114.902344 291.195312 113.195312 289.953125 111.519531 C 288.710938 109.839844 287.425781 108.195312 286.101562 106.582031 C 284.773438 104.96875 283.410156 103.386719 282.007812 101.839844 C 280.609375 100.292969 279.167969 98.78125 277.691406 97.308594 C 276.214844 95.832031 274.703125 94.390625 273.15625 92.988281 C 271.609375 91.585938 270.03125 90.222656 268.417969 88.898438 C 266.800781 87.574219 265.15625 86.289062 263.480469 85.046875 C 261.804688 83.800781 260.097656 82.597656 258.363281 81.4375 C 256.625 80.277344 254.863281 79.160156 253.074219 78.085938 C 251.28125 77.011719 249.46875 75.984375 247.625 75 C 245.785156 74.015625 243.921875 73.074219 242.035156 72.179688 C 240.148438 71.289062 238.238281 70.441406 236.3125 69.640625 C 234.382812 68.839844 232.4375 68.089844 230.472656 67.382812 C 228.503906 66.679688 226.523438 66.023438 224.527344 65.414062 C 222.53125 64.808594 220.519531 64.25 218.492188 63.742188 C 216.46875 63.230469 214.433594 62.773438 212.386719 62.363281 C 210.335938 61.953125 208.28125 61.597656 206.214844 61.289062 C 204.152344 60.980469 202.082031 60.722656 200.003906 60.515625 C 197.925781 60.308594 195.84375 60.152344 193.757812 60.046875 C 191.671875 59.945312 189.585938 59.890625 187.5 59.886719 Z M 187.5 298.097656 C 169.929688 298.097656 151.539062 275.449219 142.410156 238.542969 L 232.589844 238.542969 C 223.460938 275.449219 205.066406 298.097656 187.5 298.097656 Z M 138.957031 221.527344 C 135.601562 198.84375 135.601562 176.15625 138.957031 153.46875 L 236.042969 153.46875 C 237.730469 164.75 238.566406 176.09375 238.542969 187.5 C 238.566406 198.90625 237.730469 210.25 236.042969 221.527344 Z M 76.902344 187.5 C 76.910156 175.871094 78.710938 164.527344 82.3125 153.46875 L 121.875 153.46875 C 118.613281 176.15625 118.613281 198.84375 121.875 221.527344 L 82.3125 221.527344 C 78.710938 210.472656 76.910156 199.128906 76.902344 187.5 Z M 187.5 76.902344 C 205.066406 76.902344 223.460938 99.550781 232.589844 136.453125 L 142.410156 136.453125 C 151.539062 99.550781 169.929688 76.902344 187.5 76.902344 Z M 253.125 153.46875 L 292.683594 153.46875 C 294.476562 158.964844 295.828125 164.5625 296.734375 170.269531 C 297.640625 175.976562 298.09375 181.71875 298.09375 187.5 C 298.09375 193.277344 297.640625 199.019531 296.734375 204.726562 C 295.828125 210.433594 294.476562 216.035156 292.683594 221.527344 L 253.125 221.527344 C 254.742188 210.242188 255.550781 198.898438 255.558594 187.5 C 255.550781 176.097656 254.742188 164.753906 253.125 153.46875 Z M 285.511719 136.453125 L 250.0625 136.453125 C 248.167969 127.203125 245.386719 118.226562 241.710938 109.527344 C 238.035156 100.832031 233.539062 92.578125 228.222656 84.773438 C 234.339844 87.210938 240.191406 90.167969 245.78125 93.648438 C 251.371094 97.128906 256.609375 101.070312 261.496094 105.480469 C 266.386719 109.890625 270.847656 114.699219 274.882812 119.902344 C 278.914062 125.105469 282.460938 130.621094 285.511719 136.453125 Z M 146.773438 84.773438 C 141.460938 92.578125 136.964844 100.832031 133.289062 109.527344 C 129.613281 118.226562 126.828125 127.203125 124.9375 136.453125 L 89.484375 136.453125 C 92.539062 130.621094 96.082031 125.105469 100.117188 119.902344 C 104.152344 114.699219 108.613281 109.890625 113.5 105.480469 C 118.390625 101.070312 123.628906 97.128906 129.21875 93.648438 C 134.808594 90.167969 140.660156 87.210938 146.773438 84.773438 Z M 89.484375 238.542969 L 124.9375 238.542969 C 126.828125 247.796875 129.613281 256.769531 133.289062 265.46875 C 136.964844 274.167969 141.460938 282.421875 146.773438 290.226562 C 140.660156 287.789062 134.808594 284.828125 129.21875 281.351562 C 123.628906 277.871094 118.390625 273.925781 113.5 269.515625 C 108.613281 265.105469 104.152344 260.300781 100.117188 255.097656 C 96.082031 249.894531 92.539062 244.375 89.484375 238.542969 Z M 228.222656 290.226562 C 233.539062 282.421875 238.035156 274.167969 241.710938 265.46875 C 245.386719 256.769531 248.167969 247.796875 250.0625 238.542969 L 285.511719 238.542969 C 282.460938 244.375 278.914062 249.894531 274.882812 255.097656 C 270.847656 260.300781 266.386719 265.105469 261.496094 269.515625 C 256.609375 273.925781 251.371094 277.871094 245.78125 281.351562 C 240.191406 284.828125 234.339844 287.789062 228.222656 290.226562 Z M 228.222656 290.226562 " fill-opacity="1" fill-rule="nonzero"/></g></svg>