<svg xmlns="http://www.w3.org/2000/svg" xmlns:xlink="http://www.w3.org/1999/xlink" width="500" zoomAndPan="magnify" viewBox="0 0 375 374.999991" height="500" preserveAspectRatio="xMidYMid meet" version="1.0"><defs><clipPath id="8624605ccf"><path d="M 44.660156 43.867188 L 330.410156 43.867188 L 330.410156 331 L 44.660156 331 Z M 44.660156 43.867188 " clip-rule="nonzero"/></clipPath></defs><rect x="-37.5" width="450" fill="#ffffff" y="-37.499999" height="449.999989" fill-opacity="1"/><rect x="-37.5" width="450" fill="#25d366" y="-37.499999" height="449.999989" fill-opacity="1"/><g clip-path="url(#8624605ccf)"><path fill="#ffffff" d="M 288.773438 85.582031 C 261.917969 58.695312 226.195312 43.882812 188.136719 43.871094 C 109.710938 43.871094 45.882812 107.671875 45.855469 186.089844 C 45.839844 211.160156 52.398438 235.628906 64.847656 257.195312 L 44.660156 330.902344 L 120.085938 311.125 C 140.867188 322.460938 164.265625 328.429688 188.074219 328.4375 L 188.136719 328.4375 C 266.546875 328.4375 330.382812 264.628906 330.410156 186.207031 C 330.425781 148.199219 315.640625 112.472656 288.773438 85.585938 Z M 188.136719 304.417969 L 188.089844 304.417969 C 166.871094 304.410156 146.058594 298.707031 127.898438 287.9375 L 123.578125 285.375 L 78.820312 297.113281 L 90.765625 253.484375 L 87.953125 249.011719 C 76.117188 230.1875 69.863281 208.433594 69.875 186.097656 C 69.902344 120.921875 122.949219 67.890625 188.183594 67.890625 C 219.769531 67.902344 249.460938 80.214844 271.789062 102.5625 C 294.117188 124.902344 306.402344 154.613281 306.390625 186.195312 C 306.363281 251.378906 253.316406 304.410156 188.136719 304.410156 Z M 253 215.878906 C 249.445312 214.101562 231.96875 205.507812 228.707031 204.320312 C 225.445312 203.132812 223.078125 202.542969 220.710938 206.101562 C 218.34375 209.660156 211.527344 217.667969 209.453125 220.035156 C 207.382812 222.40625 205.308594 222.699219 201.753906 220.921875 C 198.199219 219.140625 186.746094 215.390625 173.160156 203.285156 C 162.59375 193.859375 155.457031 182.226562 153.382812 178.664062 C 151.308594 175.105469 153.167969 173.179688 154.941406 171.414062 C 156.535156 169.820312 158.492188 167.261719 160.273438 165.1875 C 162.054688 163.117188 162.640625 161.628906 163.828125 159.261719 C 165.015625 156.890625 164.421875 154.816406 163.535156 153.035156 C 162.648438 151.253906 155.539062 133.761719 152.574219 126.648438 C 149.6875 119.722656 146.753906 120.660156 144.578125 120.546875 C 142.503906 120.445312 140.136719 120.421875 137.761719 120.421875 C 135.386719 120.421875 131.539062 121.308594 128.277344 124.871094 C 125.019531 128.429688 115.835938 137.03125 115.835938 154.515625 C 115.835938 172 128.574219 188.910156 130.351562 191.28125 C 132.132812 193.65625 155.421875 229.546875 191.082031 244.945312 C 199.5625 248.609375 206.1875 250.796875 211.351562 252.433594 C 219.867188 255.144531 227.617188 254.761719 233.742188 253.847656 C 240.570312 252.824219 254.773438 245.246094 257.734375 236.945312 C 260.695312 228.648438 260.695312 221.527344 259.808594 220.046875 C 258.921875 218.566406 256.546875 217.675781 252.992188 215.894531 Z M 253 215.878906 " fill-opacity="1" fill-rule="evenodd"/></g></svg>